<?xml version="1.0" ?><svg height="60px" version="1.1" viewBox="0 0 60 60" width="60px" xmlns="http://www.w3.org/2000/svg" xmlns:xlink="http://www.w3.org/1999/xlink"><title/><desc/><defs><linearGradient id="linearGradient-1" x1="49.9619156%" x2="49.9619156%" y1="100.283203%" y2="-0.0316596807%"><stop offset="0%" stop-color="#096FD2"/><stop offset="100%" stop-color="#0E8EE9"/></linearGradient><linearGradient id="linearGradient-2" x1="37.4235708%" x2="37.4121064%" y1="100.103131%" y2="0.0552486188%"><stop offset="0%" stop-color="#096FD2"/><stop offset="100%" stop-color="#0E8EE9"/></linearGradient></defs><g fill="none" fill-rule="evenodd" id="Page-1" stroke="none" stroke-width="1"><g id="Social_icons" transform="translate(-322.000000, -1455.000000)"><g id="TeamViewer" transform="translate(322.000000, 1455.000000)"><path d="M0,30 C0,13.4314567 13.4314567,0 30,0 C46.5685433,0 60,13.4314567 60,30 C60,46.5685433 46.5685433,60 30,60 C13.4314567,60 0,46.5685433 0,30 Z" fill="#FFFFFF" id="back"/><g id="Group" transform="translate(12.000000, 12.000000)"><path d="M32.238247,2.22330471e-15 L3.71956669,2.22330471e-15 C1.65043823,0.0266479985 -0.00991094669,1.6948479 4.45365454e-05,3.73710938 L4.45365454e-05,32.2628906 C-0.00983094764,34.3131902 1.66326944,35.9847222 3.74066039,36 L32.2593407,36 C34.3367316,35.9847222 36.009832,34.3131902 35.9999565,32.2628906 L35.9999565,3.73710938 C36.0046908,2.74878767 35.6106844,1.79924215 34.9049159,1.09808916 C34.1991475,0.396936182 33.2396537,0.00183285952 32.238247,0 L32.238247,2.22330471e-15 Z M17.9859381,32.8851563 C9.71704154,32.8221531 3.06310086,26.1603291 3.11839629,18 C3.06310086,9.83967087 9.71704154,3.17784686 17.9859381,3.11484375 C26.2589651,3.17213131 32.9193065,9.8356366 32.8640267,18 C32.9193065,26.1643634 26.2589651,32.8278687 17.9859381,32.8851563 L17.9859381,32.8851563 Z" fill="url(#linearGradient-1)" id="path87"/><polyline fill="url(#linearGradient-2)" id="path89" points="32 17.9981584 21.5317436 13 22.3727708 16.2025783 13.6272292 16.2025783 14.4682564 13 4 18.0018416 14.4753898 23 13.6343626 19.7974217 22.3799042 19.7974217 21.538877 23 32 18.0018416"/></g></g></g></g></svg>