<?xml version="1.0" ?><svg enable-background="new 43 142.4 504 504" id="Layer_1" version="1.1" viewBox="43 142.4 504 504" xml:space="preserve" xmlns="http://www.w3.org/2000/svg" xmlns:xlink="http://www.w3.org/1999/xlink"><path d="M546,394.7c9.6,204.5-46.5,260.6-251,251c-204.5,9.6-260.6-46.5-251-251c-9.6-204.5,46.5-260.6,251-251  C499.5,134.2,555.6,190.2,546,394.7z" fill="#3564B7"/><g><path d="M346.7,519c0,0-5.9-5-9.1-8.2c-3.2-3.2-4.1-7.2-4.1-7.2l-2.6-27.4h-71.2l-2.6,27.4c0,0-0.9,4.2-4.1,7.4   c-3.2,3.2-9.1,8.1-9.1,8.1s-5.3,3.7,2.6,4.9c4.5,0.7,24.8,1.2,41.1,1.2H303c16.6,0,36.5-0.5,41-1.2C352,522.8,346.7,519,346.7,519z   " fill="#FFFFFF"/><path d="M456.2,264.3H134.1c-4.6,0-8.7,4.3-8.7,8.9v189.2c0,4.7,4.1,8.9,8.7,8.9h119.2h6.9h70.4h7.2h118.6   c4.6,0,8.2-4.2,8.2-8.9V273.2C464.4,268.6,460.9,264.3,456.2,264.3z M450.4,456.2h-312v-177h312V456.2z" fill="#FFFFFF"/></g></svg>